# xmcd CD database file
#
# Track frame offsets:
#	150
#	20103
#	48381
#	70190
#	103320
#	139473
#	167376
#	199979
#	225776
#	258836
#	290940
#	319719
#
# Disc length: 4642 seconds
#
# Revision: 1
# Processed by: cddbd v1.5.2PL0 Copyright (c) Steve Scherf et al.
# Submitted via: jetAudio 5
#
DISCID=b112200c
DTITLE=INSIDE - My music compilation (2007)
DYEAR=1900
DGENRE=
TTITLE0=Lady Mojo
TTITLE1=Life
TTITLE2=Dawn of love
TTITLE3=She is
TTITLE4=Something alive
TTITLE5=2 Night
TTITLE6=Comfortable
TTITLE7=She so good
TTITLE8=Spring love
TTITLE9=My freestyle
TTITLE10=On The Go
TTITLE11=Talk to me
EXTD=
EXTT0=
EXTT1=
EXTT2=
EXTT3=
EXTT4=
EXTT5=
EXTT6=
EXTT7=
EXTT8=
EXTT9=
EXTT10=
EXTT11=
PLAYORDER=
